<svg width="78" height="38" viewBox="0 0 78 38" fill="none" xmlns="http://www.w3.org/2000/svg">
<path d="M15.52 28H0.16V0.599998H4.6V24.04H15.52V28ZM19.7044 10.16C21.091 8.42667 23.3844 7.56 26.5844 7.56C29.7844 7.56 32.0644 8.42667 33.4244 10.16C34.811 11.8933 35.5044 14.4933 35.5044 17.96C35.5044 21.4267 34.8377 24.04 33.5044 25.8C32.171 27.56 29.8644 28.44 26.5844 28.44C23.3044 28.44 20.9977 27.56 19.6644 25.8C18.331 24.04 17.6644 21.4267 17.6644 17.96C17.6644 14.4933 18.3444 11.8933 19.7044 10.16ZM22.9844 23.16C23.5977 24.2267 24.7977 24.76 26.5844 24.76C28.371 24.76 29.571 24.2267 30.1844 23.16C30.7977 22.0933 31.1044 20.3467 31.1044 17.92C31.1044 15.4933 30.771 13.7733 30.1044 12.76C29.4644 11.7467 28.291 11.24 26.5844 11.24C24.8777 11.24 23.691 11.7467 23.0244 12.76C22.3844 13.7733 22.0644 15.4933 22.0644 17.92C22.0644 20.3467 22.371 22.0933 22.9844 23.16ZM57.3153 30.72C57.3153 35.0933 54.1553 37.28 47.8353 37.28C44.7953 37.28 42.542 36.8667 41.0753 36.04C39.6086 35.2133 38.8753 33.7067 38.8753 31.52C38.8753 30.5333 39.1153 29.68 39.5953 28.96C40.0753 28.2667 40.8486 27.5067 41.9153 26.68C41.0353 26.0933 40.5953 25.12 40.5953 23.76C40.5953 23.2267 40.9553 22.36 41.6753 21.16L42.0353 20.56C40.1153 19.4133 39.1553 17.4133 39.1553 14.56C39.1553 12.16 39.8753 10.4 41.3153 9.28C42.7553 8.16 44.702 7.6 47.1553 7.6C48.3286 7.6 49.4886 7.73333 50.6353 8L51.2353 8.12L57.4353 7.96V11.48L54.1153 11.28C54.8353 12.2133 55.1953 13.3067 55.1953 14.56C55.1953 17.1733 54.5286 18.9867 53.1953 20C51.8886 20.9867 49.8353 21.48 47.0353 21.48C46.342 21.48 45.7553 21.4267 45.2753 21.32C44.902 22.2267 44.7153 22.9333 44.7153 23.44C44.7153 23.92 44.9553 24.2533 45.4353 24.44C45.942 24.6267 47.142 24.7333 49.0353 24.76C52.2086 24.7867 54.382 25.2133 55.5553 26.04C56.7286 26.8667 57.3153 28.4267 57.3153 30.72ZM43.1553 31.12C43.1553 32.0533 43.5286 32.72 44.2753 33.12C45.022 33.52 46.302 33.72 48.1153 33.72C51.342 33.72 52.9553 32.8 52.9553 30.96C52.9553 29.92 52.662 29.2533 52.0753 28.96C51.5153 28.6933 50.382 28.5467 48.6753 28.52L44.7553 28.28C44.1686 28.76 43.7553 29.2 43.5153 29.6C43.2753 30.0267 43.1553 30.5333 43.1553 31.12ZM43.4753 14.56C43.4753 15.7867 43.7686 16.6933 44.3553 17.28C44.942 17.84 45.8886 18.12 47.1953 18.12C48.502 18.12 49.4353 17.84 49.9953 17.28C50.582 16.6933 50.8753 15.7867 50.8753 14.56C50.8753 13.3333 50.582 12.44 49.9953 11.88C49.4086 11.2933 48.462 11 47.1553 11C44.702 11 43.4753 12.1867 43.4753 14.56ZM61.9309 10.16C63.3176 8.42667 65.6109 7.56 68.8109 7.56C72.0109 7.56 74.2909 8.42667 75.6509 10.16C77.0376 11.8933 77.7309 14.4933 77.7309 17.96C77.7309 21.4267 77.0643 24.04 75.7309 25.8C74.3976 27.56 72.0909 28.44 68.8109 28.44C65.5309 28.44 63.2243 27.56 61.8909 25.8C60.5576 24.04 59.8909 21.4267 59.8909 17.96C59.8909 14.4933 60.5709 11.8933 61.9309 10.16ZM65.2109 23.16C65.8243 24.2267 67.0243 24.76 68.8109 24.76C70.5976 24.76 71.7976 24.2267 72.4109 23.16C73.0243 22.0933 73.3309 20.3467 73.3309 17.92C73.3309 15.4933 72.9976 13.7733 72.3309 12.76C71.6909 11.7467 70.5176 11.24 68.8109 11.24C67.1043 11.24 65.9176 11.7467 65.2509 12.76C64.6109 13.7733 64.2909 15.4933 64.2909 17.92C64.2909 20.3467 64.5976 22.0933 65.2109 23.16Z" fill="#0884FF"/>
</svg>
